<svg width="60" height="60" viewBox="0 0 60 60" fill="none" xmlns="http://www.w3.org/2000/svg">
<path d="M12 45.125C14.25 42.9167 16.8646 41.1771 19.8438 39.9062C22.8229 38.6354 26.0417 38 29.5 38C32.9583 38 36.1771 38.6354 39.1562 39.9062C42.1354 41.1771 44.75 42.9167 47 45.125V13H12V45.125ZM29.5 33C31.9167 33 33.9792 32.1458 35.6875 30.4375C37.3958 28.7292 38.25 26.6667 38.25 24.25C38.25 21.8333 37.3958 19.7708 35.6875 18.0625C33.9792 16.3542 31.9167 15.5 29.5 15.5C27.0833 15.5 25.0208 16.3542 23.3125 18.0625C21.6042 19.7708 20.75 21.8333 20.75 24.25C20.75 26.6667 21.6042 28.7292 23.3125 30.4375C25.0208 32.1458 27.0833 33 29.5 33ZM12 53C10.625 53 9.44792 52.5104 8.46875 51.5312C7.48958 50.5521 7 49.375 7 48V13C7 11.625 7.48958 10.4479 8.46875 9.46875C9.44792 8.48958 10.625 8 12 8H47C48.375 8 49.5521 8.48958 50.5312 9.46875C51.5104 10.4479 52 11.625 52 13V48C52 49.375 51.5104 50.5521 50.5312 51.5312C49.5521 52.5104 48.375 53 47 53H12ZM17 48H42V47.375C40.25 45.9167 38.3125 44.8229 36.1875 44.0938C34.0625 43.3646 31.8333 43 29.5 43C27.1667 43 24.9375 43.3646 22.8125 44.0938C20.6875 44.8229 18.75 45.9167 17 47.375V48ZM29.5 28C28.4583 28 27.5729 27.6354 26.8438 26.9062C26.1146 26.1771 25.75 25.2917 25.75 24.25C25.75 23.2083 26.1146 22.3229 26.8438 21.5938C27.5729 20.8646 28.4583 20.5 29.5 20.5C30.5417 20.5 31.4271 20.8646 32.1562 21.5938C32.8854 22.3229 33.25 23.2083 33.25 24.25C33.25 25.2917 32.8854 26.1771 32.1562 26.9062C31.4271 27.6354 30.5417 28 29.5 28Z" fill="black"/>
</svg>
