<svg width="60" height="60" viewBox="0 0 60 60" fill="none" xmlns="http://www.w3.org/2000/svg">
<path d="M20 55C18.625 55 17.4479 54.5104 16.4688 53.5312C15.4896 52.5521 15 51.375 15 50C15 48.625 15.4896 47.4479 16.4688 46.4688C17.4479 45.4896 18.625 45 20 45C21.375 45 22.5521 45.4896 23.5312 46.4688C24.5104 47.4479 25 48.625 25 50C25 51.375 24.5104 52.5521 23.5312 53.5312C22.5521 54.5104 21.375 55 20 55ZM45 55C43.625 55 42.4479 54.5104 41.4688 53.5312C40.4896 52.5521 40 51.375 40 50C40 48.625 40.4896 47.4479 41.4688 46.4688C42.4479 45.4896 43.625 45 45 45C46.375 45 47.5521 45.4896 48.5312 46.4688C49.5104 47.4479 50 48.625 50 50C50 51.375 49.5104 52.5521 48.5312 53.5312C47.5521 54.5104 46.375 55 45 55ZM17.875 15L23.875 27.5H41.375L48.25 15H17.875ZM15.5 10H52.375C53.3333 10 54.0625 10.4271 54.5625 11.2812C55.0625 12.1354 55.0833 13 54.625 13.875L45.75 29.875C45.2917 30.7083 44.6771 31.3542 43.9062 31.8125C43.1354 32.2708 42.2917 32.5 41.375 32.5H22.75L20 37.5H50V42.5H20C18.125 42.5 16.7083 41.6771 15.75 40.0312C14.7917 38.3854 14.75 36.75 15.625 35.125L19 29L10 10H5V5H13.125L15.5 10Z" fill="black"/>
</svg>
